<svg xmlns="http://www.w3.org/2000/svg" width="1440" height="940" viewBox="0 0 1440 940">
<rect x="0" y="0" width="1440" height="940" rx="0" fill="#070709"/>
<rect x="12" y="12" width="1416" height="880" rx="8" fill="#0B0B0D" stroke="#3A2B2D"/>
<circle cx="38" cy="39" r="7" fill="#C9585B"/>
<circle cx="62" cy="39" r="7" fill="#B69E63"/>
<circle cx="86" cy="39" r="7" fill="#6C9F7C"/>
<text x="125" y="46" fill="#E1DCDB" font-family="DejaVu Sans Mono,monospace" font-size="19" font-weight="400">KONTROL_</text>
<path d="M12 66 H1428" stroke="#3A2B2D"/>
<path d="M3 10 L12 3 L21 10 M6 9 V21 H10 V14 H14 V21 H18 V9" transform="translate(52,90)" fill="none" stroke="#AAA0A0" stroke-width="1.8" stroke-linejoin="round" stroke-linecap="round"/>
<text x="89" y="109" fill="#AAA0A0" font-family="DejaVu Sans Mono,monospace" font-size="17" font-weight="400">Today</text>
<path d="M12 5 V21 M12 5 Q7 1 2 4 V19 Q7 16 12 21 Q17 16 22 19 V4 Q17 1 12 5" transform="translate(246,90)" fill="none" stroke="#AAA0A0" stroke-width="1.8" stroke-linejoin="round" stroke-linecap="round"/>
<text x="283" y="109" fill="#AAA0A0" font-family="DejaVu Sans Mono,monospace" font-size="17" font-weight="400">Learning</text>
<path d="M2 6 H9 L12 9 H22 V21 H2 Z" transform="translate(440,90)" fill="none" stroke="#D6676B" stroke-width="1.8" stroke-linejoin="round" stroke-linecap="round"/>
<text x="477" y="109" fill="#D6676B" font-family="DejaVu Sans Mono,monospace" font-size="17" font-weight="400">Projects</text>
<path d="M430 132 H593" stroke="#D6676B" stroke-width="2"/>
<path d="M9 2 H15 M12 2 V5 M19 4 L21 6 M12 10 V15 L16 17 M21 15 A9 9 0 1 1 3 15 A9 9 0 1 1 21 15" transform="translate(634,90)" fill="none" stroke="#AAA0A0" stroke-width="1.8" stroke-linejoin="round" stroke-linecap="round"/>
<text x="671" y="109" fill="#AAA0A0" font-family="DejaVu Sans Mono,monospace" font-size="17" font-weight="400">Focus</text>
<path d="M3 3 H21 V21 H3 Z M7 12 L11 16 L18 8" transform="translate(828,90)" fill="none" stroke="#AAA0A0" stroke-width="1.8" stroke-linejoin="round" stroke-linecap="round"/>
<text x="865" y="109" fill="#AAA0A0" font-family="DejaVu Sans Mono,monospace" font-size="17" font-weight="400">Tasks</text>
<path d="M3 3 H20 V21 H3 Z M6 7 H12 V12 H6 Z M15 7 H18 M15 11 H18 M6 16 H18" transform="translate(1022,90)" fill="none" stroke="#AAA0A0" stroke-width="1.8" stroke-linejoin="round" stroke-linecap="round"/>
<text x="1059" y="109" fill="#AAA0A0" font-family="DejaVu Sans Mono,monospace" font-size="17" font-weight="400">News</text>
<path d="M12 2 L15 5 L19 5 L19 9 L22 12 L19 15 L19 19 L15 19 L12 22 L9 19 L5 19 L5 15 L2 12 L5 9 L5 5 L9 5 Z M16 12 A4 4 0 1 1 8 12 A4 4 0 1 1 16 12" transform="translate(1216,90)" fill="none" stroke="#AAA0A0" stroke-width="1.8" stroke-linejoin="round" stroke-linecap="round"/>
<text x="1253" y="109" fill="#AAA0A0" font-family="DejaVu Sans Mono,monospace" font-size="17" font-weight="400">Settings</text>
<path d="M12 133 H1428" stroke="#3A2B2D"/>
<text x="55" y="196" fill="#E1DCDB" font-family="DejaVu Sans Mono,monospace" font-size="32" font-weight="600">Kontrol</text>
<text x="55" y="229" fill="#AAA0A0" font-family="DejaVu Sans Mono,monospace" font-size="15" font-weight="400">9 / 14 complete</text>
<rect x="55" y="253" width="91" height="36" rx="4" fill="#151214" stroke="#3A2B2D"/>
<text x="69" y="277" fill="#E1DCDB" font-family="DejaVu Sans Mono,monospace" font-size="14" font-weight="400">Refresh</text>
<text x="55" y="323" fill="#E1DCDB" font-family="DejaVu Sans Mono,monospace" font-size="19" font-weight="500">Next features</text>
<text x="55" y="368" fill="#E1DCDB" font-family="DejaVu Sans Mono,monospace" font-size="18" font-weight="400">Local project reader</text>
<text x="55" y="393" fill="#AAA0A0" font-family="DejaVu Sans Mono,monospace" font-size="14" font-weight="400">Small · Ready</text>
<rect x="1235" y="377" width="145" height="36" rx="4" fill="#151214" stroke="#3A2B2D"/>
<text x="1249" y="401" fill="#E1DCDB" font-family="DejaVu Sans Mono,monospace" font-size="14" font-weight="400">Mark complete</text>
<path d="M55 426 H1380" stroke="#3A2B2D"/>
<text x="55" y="468" fill="#E1DCDB" font-family="DejaVu Sans Mono,monospace" font-size="18" font-weight="400">News topic filters</text>
<text x="55" y="493" fill="#AAA0A0" font-family="DejaVu Sans Mono,monospace" font-size="14" font-weight="400">Small · Ready</text>
<rect x="1235" y="477" width="145" height="36" rx="4" fill="#151214" stroke="#3A2B2D"/>
<text x="1249" y="501" fill="#E1DCDB" font-family="DejaVu Sans Mono,monospace" font-size="14" font-weight="400">Mark complete</text>
<path d="M55 526 H1380" stroke="#3A2B2D"/>
<text x="55" y="568" fill="#E1DCDB" font-family="DejaVu Sans Mono,monospace" font-size="18" font-weight="400">Focus history</text>
<text x="55" y="593" fill="#AAA0A0" font-family="DejaVu Sans Mono,monospace" font-size="14" font-weight="400">Small · Ready</text>
<rect x="1235" y="577" width="145" height="36" rx="4" fill="#151214" stroke="#3A2B2D"/>
<text x="1249" y="601" fill="#E1DCDB" font-family="DejaVu Sans Mono,monospace" font-size="14" font-weight="400">Mark complete</text>
<path d="M55 626 H1380" stroke="#3A2B2D"/>
<text x="55" y="671" fill="#E1DCDB" font-family="DejaVu Sans Mono,monospace" font-size="19" font-weight="500">Completed</text>
<text x="55" y="716" fill="#E1DCDB" font-family="DejaVu Sans Mono,monospace" font-size="18" font-weight="400">Learning history</text>
<text x="55" y="741" fill="#AAA0A0" font-family="DejaVu Sans Mono,monospace" font-size="14" font-weight="400">Completed just now</text>
<rect x="1290" y="725" width="82" height="36" rx="4" fill="#151214" stroke="#3A2B2D"/>
<text x="1304" y="749" fill="#E1DCDB" font-family="DejaVu Sans Mono,monospace" font-size="14" font-weight="400">Undo</text>
<path d="M55 774 H1380" stroke="#3A2B2D"/>
<rect x="40" y="302" width="1360" height="515" rx="0" fill="#0B0B0D"/>
<rect x="48" y="304" width="235" height="49" rx="4" fill="#271719"/>
<path d="M2 6 H9 L12 9 H22 V21 H2 Z" transform="translate(63,314)" fill="none" stroke="#D6676B" stroke-width="1.8"/>
<text x="102" y="334" fill="#D6676B" font-family="DejaVu Sans Mono,monospace" font-size="18" font-weight="400">Kontrol</text>
<path d="M2 6 H9 L12 9 H22 V21 H2 Z" transform="translate(63,380)" fill="none" stroke="#AAA0A0" stroke-width="1.8"/>
<text x="102" y="400" fill="#AAA0A0" font-family="DejaVu Sans Mono,monospace" font-size="18" font-weight="400">Melotrail</text>
<path d="M2 6 H9 L12 9 H22 V21 H2 Z" transform="translate(63,446)" fill="none" stroke="#AAA0A0" stroke-width="1.8"/>
<text x="102" y="466" fill="#AAA0A0" font-family="DejaVu Sans Mono,monospace" font-size="18" font-weight="400">Hiragame</text>
<text x="335" y="331" fill="#E1DCDB" font-family="DejaVu Sans Mono,monospace" font-size="25" font-weight="500">Kontrol</text>
<text x="335" y="363" fill="#AAA0A0" font-family="DejaVu Sans Mono,monospace" font-size="14" font-weight="400">Swift · macOS</text>
<text x="1200" y="337" fill="#D6676B" font-family="DejaVu Sans Mono,monospace" font-size="18" font-weight="400">9 / 14</text>
<text x="335" y="400" fill="#E1DCDB" font-family="DejaVu Sans Mono,monospace" font-size="18" font-weight="400">Next features</text>
<rect x="335" y="420" width="1042" height="102" rx="5" fill="#151214" stroke="#3A2B2D"/>
<text x="358" y="456" fill="#E1DCDB" font-family="DejaVu Sans Mono,monospace" font-size="20" font-weight="400">Local project reader</text>
<text x="358" y="489" fill="#AAA0A0" font-family="DejaVu Sans Mono,monospace" font-size="15" font-weight="400">Small · Ready</text>
<rect x="1195" y="455" width="145" height="36" rx="4" fill="#151214" stroke="#3A2B2D"/>
<text x="1209" y="479" fill="#E1DCDB" font-family="DejaVu Sans Mono,monospace" font-size="14" font-weight="400">Mark complete</text>
<rect x="335" y="539" width="1042" height="102" rx="5" fill="#151214" stroke="#3A2B2D"/>
<text x="358" y="575" fill="#E1DCDB" font-family="DejaVu Sans Mono,monospace" font-size="20" font-weight="400">News topic filters</text>
<text x="358" y="608" fill="#AAA0A0" font-family="DejaVu Sans Mono,monospace" font-size="15" font-weight="400">Small · Ready</text>
<rect x="1195" y="574" width="145" height="36" rx="4" fill="#151214" stroke="#3A2B2D"/>
<text x="1209" y="598" fill="#E1DCDB" font-family="DejaVu Sans Mono,monospace" font-size="14" font-weight="400">Mark complete</text>
<rect x="335" y="658" width="1042" height="102" rx="5" fill="#151214" stroke="#3A2B2D"/>
<text x="358" y="694" fill="#E1DCDB" font-family="DejaVu Sans Mono,monospace" font-size="20" font-weight="400">Focus history</text>
<text x="358" y="727" fill="#AAA0A0" font-family="DejaVu Sans Mono,monospace" font-size="15" font-weight="400">Small · Ready</text>
<rect x="1195" y="693" width="145" height="36" rx="4" fill="#151214" stroke="#3A2B2D"/>
<text x="1209" y="717" fill="#E1DCDB" font-family="DejaVu Sans Mono,monospace" font-size="14" font-weight="400">Mark complete</text>
<text x="335" y="809" fill="#AAA0A0" font-family="DejaVu Sans Mono,monospace" font-size="16" font-weight="400">Learning history · Completed</text>
<rect x="1270" y="782" width="82" height="36" rx="4" fill="#151214" stroke="#3A2B2D"/>
<text x="1284" y="806" fill="#E1DCDB" font-family="DejaVu Sans Mono,monospace" font-size="14" font-weight="400">Undo</text>
<rect x="55" y="823" width="1325" height="42" rx="3" fill="#151214" stroke="#3A2B2D"/>
<text x="71" y="850" fill="#D6676B" font-family="DejaVu Sans Mono,monospace" font-size="15" font-weight="400">Feature saved</text>
<text x="18" y="922" fill="#AAA0A0" font-family="DejaVu Sans Mono,monospace" font-size="13" font-weight="400">M31 · feature-completion-undo · F11 · Desktop UI specification</text>
</svg>