<svg xmlns="http://www.w3.org/2000/svg" width="1440" height="940" viewBox="0 0 1440 940">
<rect x="0" y="0" width="1440" height="940" rx="0" fill="#070709"/>
<rect x="12" y="12" width="1416" height="880" rx="8" fill="#0B0B0D" stroke="#3A2B2D"/>
<circle cx="38" cy="39" r="7" fill="#C9585B"/>
<circle cx="62" cy="39" r="7" fill="#B69E63"/>
<circle cx="86" cy="39" r="7" fill="#6C9F7C"/>
<text x="125" y="46" fill="#E1DCDB" font-family="DejaVu Sans Mono,monospace" font-size="19" font-weight="400">KONTROL_</text>
<path d="M12 66 H1428" stroke="#3A2B2D"/>
<path d="M3 10 L12 3 L21 10 M6 9 V21 H10 V14 H14 V21 H18 V9" transform="translate(52,90)" fill="none" stroke="#AAA0A0" stroke-width="1.8" stroke-linejoin="round" stroke-linecap="round"/>
<text x="89" y="109" fill="#AAA0A0" font-family="DejaVu Sans Mono,monospace" font-size="17" font-weight="400">Today</text>
<path d="M12 5 V21 M12 5 Q7 1 2 4 V19 Q7 16 12 21 Q17 16 22 19 V4 Q17 1 12 5" transform="translate(246,90)" fill="none" stroke="#AAA0A0" stroke-width="1.8" stroke-linejoin="round" stroke-linecap="round"/>
<text x="283" y="109" fill="#AAA0A0" font-family="DejaVu Sans Mono,monospace" font-size="17" font-weight="400">Learning</text>
<path d="M2 6 H9 L12 9 H22 V21 H2 Z" transform="translate(440,90)" fill="none" stroke="#AAA0A0" stroke-width="1.8" stroke-linejoin="round" stroke-linecap="round"/>
<text x="477" y="109" fill="#AAA0A0" font-family="DejaVu Sans Mono,monospace" font-size="17" font-weight="400">Projects</text>
<path d="M9 2 H15 M12 2 V5 M19 4 L21 6 M12 10 V15 L16 17 M21 15 A9 9 0 1 1 3 15 A9 9 0 1 1 21 15" transform="translate(634,90)" fill="none" stroke="#AAA0A0" stroke-width="1.8" stroke-linejoin="round" stroke-linecap="round"/>
<text x="671" y="109" fill="#AAA0A0" font-family="DejaVu Sans Mono,monospace" font-size="17" font-weight="400">Focus</text>
<path d="M3 3 H21 V21 H3 Z M7 12 L11 16 L18 8" transform="translate(828,90)" fill="none" stroke="#AAA0A0" stroke-width="1.8" stroke-linejoin="round" stroke-linecap="round"/>
<text x="865" y="109" fill="#AAA0A0" font-family="DejaVu Sans Mono,monospace" font-size="17" font-weight="400">Tasks</text>
<path d="M3 3 H20 V21 H3 Z M6 7 H12 V12 H6 Z M15 7 H18 M15 11 H18 M6 16 H18" transform="translate(1022,90)" fill="none" stroke="#D6676B" stroke-width="1.8" stroke-linejoin="round" stroke-linecap="round"/>
<text x="1059" y="109" fill="#D6676B" font-family="DejaVu Sans Mono,monospace" font-size="17" font-weight="400">News</text>
<path d="M1012 132 H1175" stroke="#D6676B" stroke-width="2"/>
<path d="M12 2 L15 5 L19 5 L19 9 L22 12 L19 15 L19 19 L15 19 L12 22 L9 19 L5 19 L5 15 L2 12 L5 9 L5 5 L9 5 Z M16 12 A4 4 0 1 1 8 12 A4 4 0 1 1 16 12" transform="translate(1216,90)" fill="none" stroke="#AAA0A0" stroke-width="1.8" stroke-linejoin="round" stroke-linecap="round"/>
<text x="1253" y="109" fill="#AAA0A0" font-family="DejaVu Sans Mono,monospace" font-size="17" font-weight="400">Settings</text>
<path d="M12 133 H1428" stroke="#3A2B2D"/>
<text x="55" y="196" fill="#E1DCDB" font-family="DejaVu Sans Mono,monospace" font-size="32" font-weight="600">Topics &amp; feeds</text>
<text x="55" y="229" fill="#AAA0A0" font-family="DejaVu Sans Mono,monospace" font-size="15" font-weight="400">7 topics selected</text>
<rect x="55" y="253" width="82" height="36" rx="4" fill="#151214" stroke="#3A2B2D"/>
<text x="69" y="277" fill="#E1DCDB" font-family="DejaVu Sans Mono,monospace" font-size="14" font-weight="400">+ Feed</text>
<rect x="147" y="253" width="82" height="36" rx="4" fill="#D6676B" stroke="#D6676B"/>
<text x="161" y="277" fill="#0B0B0D" font-family="DejaVu Sans Mono,monospace" font-size="14" font-weight="400">Save</text>
<text x="55" y="323" fill="#E1DCDB" font-family="DejaVu Sans Mono,monospace" font-size="19" font-weight="500">Topics</text>
<text x="55" y="368" fill="#E1DCDB" font-family="DejaVu Sans Mono,monospace" font-size="18" font-weight="400">Go · Java · Software Engineering</text>
<text x="55" y="393" fill="#AAA0A0" font-family="DejaVu Sans Mono,monospace" font-size="14" font-weight="400">Selected</text>
<path d="M55 426 H1380" stroke="#3A2B2D"/>
<text x="55" y="468" fill="#E1DCDB" font-family="DejaVu Sans Mono,monospace" font-size="18" font-weight="400">Security · System Design · AI · Japan</text>
<text x="55" y="493" fill="#AAA0A0" font-family="DejaVu Sans Mono,monospace" font-size="14" font-weight="400">Selected</text>
<path d="M55 526 H1380" stroke="#3A2B2D"/>
<text x="55" y="571" fill="#E1DCDB" font-family="DejaVu Sans Mono,monospace" font-size="19" font-weight="500">Feeds</text>
<text x="55" y="616" fill="#E1DCDB" font-family="DejaVu Sans Mono,monospace" font-size="18" font-weight="400">Go Blog</text>
<text x="55" y="641" fill="#AAA0A0" font-family="DejaVu Sans Mono,monospace" font-size="14" font-weight="400">HTTPS feed URL · Go</text>
<rect x="1290" y="625" width="82" height="36" rx="4" fill="#151214" stroke="#3A2B2D"/>
<text x="1304" y="649" fill="#E1DCDB" font-family="DejaVu Sans Mono,monospace" font-size="14" font-weight="400">Edit</text>
<path d="M55 674 H1380" stroke="#3A2B2D"/>
<text x="55" y="716" fill="#E1DCDB" font-family="DejaVu Sans Mono,monospace" font-size="18" font-weight="400">Engineering feed</text>
<text x="55" y="741" fill="#AAA0A0" font-family="DejaVu Sans Mono,monospace" font-size="14" font-weight="400">HTTPS feed URL · Software Engineering</text>
<rect x="1290" y="725" width="82" height="36" rx="4" fill="#151214" stroke="#3A2B2D"/>
<text x="1304" y="749" fill="#E1DCDB" font-family="DejaVu Sans Mono,monospace" font-size="14" font-weight="400">Remove</text>
<path d="M55 774 H1380" stroke="#3A2B2D"/>
<rect x="13" y="134" width="1414" height="757" rx="0" fill="#0B0B0DEC"/>
<rect x="380" y="260.0" width="680" height="420" rx="8" fill="#151214" stroke="#3A2B2D"/>
<text x="410" y="308.0" fill="#E1DCDB" font-family="DejaVu Sans Mono,monospace" font-size="25" font-weight="500">Edit feed</text>
<text x="410" y="344.0" fill="#AAA0A0" font-family="DejaVu Sans Mono,monospace" font-size="13" font-weight="400">Name</text>
<rect x="410" y="354.0" width="620" height="35" rx="3" fill="#0B0B0D" stroke="#3A2B2D"/>
<text x="422" y="378.0" fill="#E1DCDB" font-family="DejaVu Sans Mono,monospace" font-size="16" font-weight="400">Go Blog</text>
<text x="410" y="414.0" fill="#AAA0A0" font-family="DejaVu Sans Mono,monospace" font-size="13" font-weight="400">Feed URL</text>
<rect x="410" y="424.0" width="620" height="35" rx="3" fill="#0B0B0D" stroke="#3A2B2D"/>
<text x="422" y="448.0" fill="#E1DCDB" font-family="DejaVu Sans Mono,monospace" font-size="16" font-weight="400">https://example.org/feed.xml</text>
<text x="410" y="484.0" fill="#AAA0A0" font-family="DejaVu Sans Mono,monospace" font-size="13" font-weight="400">Topics</text>
<rect x="410" y="494.0" width="620" height="35" rx="3" fill="#0B0B0D" stroke="#3A2B2D"/>
<text x="422" y="518.0" fill="#E1DCDB" font-family="DejaVu Sans Mono,monospace" font-size="16" font-weight="400">Go</text>
<rect x="410" y="620.0" width="82" height="36" rx="4" fill="#151214" stroke="#3A2B2D"/>
<text x="424" y="644.0" fill="#E1DCDB" font-family="DejaVu Sans Mono,monospace" font-size="14" font-weight="400">Cancel</text>
<rect x="504" y="620.0" width="82" height="36" rx="4" fill="#D6676B" stroke="#D6676B"/>
<text x="518" y="644.0" fill="#0B0B0D" font-family="DejaVu Sans Mono,monospace" font-size="14" font-weight="400">Save</text>
<text x="18" y="922" fill="#AAA0A0" font-family="DejaVu Sans Mono,monospace" font-size="13" font-weight="400">M36 · news-topics-feeds · F12 · Desktop UI specification</text>
</svg>