<svg xmlns="http://www.w3.org/2000/svg" width="1440" height="940" viewBox="0 0 1440 940">
<!-- F00 starter summary, derived from the approved M00 shell and Black / Red Terminal direction. Unlike F05 M15, these are imported definitions, not active choices. No progress, slot counters, lesson opening, or generation actions. Content is the shipped catalog v1; titles can change on import. -->
<rect width="1440" height="940" fill="#070709"/>
<rect x="12" y="12" width="1416" height="880" rx="8" fill="#0B0B0D" stroke="#3A2B2D"/>
<circle cx="38" cy="39" r="7" fill="#C9585B"/><circle cx="62" cy="39" r="7" fill="#B69E63"/><circle cx="86" cy="39" r="7" fill="#6C9F7C"/>
<text x="125" y="46" fill="#E1DCDB" font-family="DejaVu Sans Mono,monospace" font-size="19">KONTROL_</text>
<path d="M12 66 H1428 M12 133 H1428" stroke="#3A2B2D"/>
<g fill="none" stroke="#AAA0A0" stroke-width="1.8" stroke-linejoin="round" stroke-linecap="round">
<path d="M3 10 L12 3 L21 10 M6 9 V21 H10 V14 H14 V21 H18 V9" transform="translate(52,90)"/>
<path d="M2 6 H9 L12 9 H22 V21 H2 Z" transform="translate(440,90)"/>
<path d="M9 2 H15 M12 2 V5 M19 4 L21 6 M12 10 V15 L16 17 M21 15 A9 9 0 1 1 3 15 A9 9 0 1 1 21 15" transform="translate(634,90)"/>
<path d="M3 3 H21 V21 H3 Z M7 12 L11 16 L18 8" transform="translate(828,90)"/>
<path d="M3 3 H20 V21 H3 Z M6 7 H12 V12 H6 Z M15 7 H18 M15 11 H18 M6 16 H18" transform="translate(1022,90)"/>
<path d="M12 2 L15 5 L19 5 L19 9 L22 12 L19 15 L19 19 L15 19 L12 22 L9 19 L5 19 L5 15 L2 12 L5 9 L5 5 L9 5 Z M16 12 A4 4 0 1 1 8 12 A4 4 0 1 1 16 12" transform="translate(1216,90)"/>
</g>
<path d="M12 5 V21 M12 5 Q7 1 2 4 V19 Q7 16 12 21 Q17 16 22 19 V4 Q17 1 12 5" transform="translate(246,90)" fill="none" stroke="#D6676B" stroke-width="1.8" stroke-linejoin="round" stroke-linecap="round"/>
<g font-family="DejaVu Sans Mono,monospace" font-size="17" fill="#AAA0A0">
<text x="89" y="109">Today</text><text x="283" y="109" fill="#D6676B">Learning</text><text x="477" y="109">Projects</text><text x="671" y="109">Focus</text><text x="865" y="109">Tasks</text><text x="1059" y="109">News</text><text x="1253" y="109">Settings</text>
</g>
<path d="M236 132 H399" stroke="#D6676B" stroke-width="2"/>
<g font-family="DejaVu Sans Mono,monospace">
<text x="55" y="198" fill="#E1DCDB" font-size="30" font-weight="600">Learning</text>
<text x="55" y="231" fill="#AAA0A0" font-size="15">Included starter content · available offline</text>
<g fill="#E1DCDB" font-size="18">
<text x="55" y="274">Go</text><text x="55" y="349">Java</text><text x="55" y="424">System Design</text><text x="55" y="499">Performance</text><text x="55" y="574">Security</text>
</g>
<g fill="#E1DCDB" font-size="15">
<text x="55" y="301">Stop a worker when its caller leaves</text>
<text x="55" y="376">Own the stream you open</text>
<text x="55" y="451">Make a retried payment safe</text>
<text x="55" y="526">Spot the query hidden in a loop</text>
<text x="55" y="601">Check the object, not just the login</text>
</g>
<g fill="#AAA0A0" font-size="15" text-anchor="end">
<text x="1380" y="301">Learn · 12 min</text><text x="1380" y="376">Code · 14 min</text>
<text x="1380" y="451">Design · 16 min</text><text x="1380" y="526">Code · 13 min</text>
<text x="1380" y="601">Code · 14 min</text>
</g>
<path d="M55 321 H1380 M55 396 H1380 M55 471 H1380 M55 546 H1380 M55 621 H1380" stroke="#3A2B2D"/>
<text x="18" y="922" fill="#AAA0A0" font-size="13">M43 · learning-starter-summary · F00 · Read-only offline definitions (not F05 choices)</text>
</g>
</svg>
